<svg width="25" height="29" viewBox="0 0 25 29" fill="none" xmlns="http://www.w3.org/2000/svg">
<rect width="25" height="29" fill="white"/>
<path d="M8.99498 16.8314L11.7747 10.429H12.7073V12.2403L10.7346 16.8314H12.2052V16.0065C12.2052 15.8056 12.5399 15.7913 12.7073 15.8092V18.3379C12.2482 18.3379 12.1813 18.1825 12.2052 18.1047V17.3874H10.4656L6.16141 27H6L7.09397 23.6822C7.09397 23.6822 6.12554 23.3056 6.44835 22.4986C6.77116 21.6915 8.70803 17.3874 8.70803 17.3874H6.44835V16.8314H8.99498Z" fill="#333333"/>
<path d="M16.2403 16.8314L13.4605 10.429H12.528V12.2403L14.5007 16.8314H13.0301V16.0065C13.0301 15.8056 12.6954 15.7913 12.528 15.8092V18.3379C12.9871 18.3379 13.054 18.1825 13.0301 18.1047V17.3874H14.7697L19.0739 27H19.2353L18.1413 23.6822C18.1413 23.6822 19.1098 23.3056 18.7869 22.4986C18.4641 21.6915 16.5273 17.3874 16.5273 17.3874H18.7869V16.8314H16.2403Z" fill="#333333"/>
<path fill-rule="evenodd" clip-rule="evenodd" d="M12.6356 9.49641C13.6855 9.49641 14.5366 8.6453 14.5366 7.59541C14.5366 6.54551 13.6855 5.6944 12.6356 5.6944C11.5857 5.6944 10.7346 6.54551 10.7346 7.59541C10.7346 8.6453 11.5857 9.49641 12.6356 9.49641ZM12.6356 10.5366C14.26 10.5366 15.5768 9.21978 15.5768 7.59541C15.5768 5.97104 14.26 4.65423 12.6356 4.65423C11.0112 4.65423 9.69443 5.97104 9.69443 7.59541C9.69443 9.21978 11.0112 10.5366 12.6356 10.5366Z" fill="#333333"/>
<path d="M12.0976 2H13.1736V4.83357H12.0976V2Z" fill="#333333"/>
</svg>
