<svg width="64" height="49" fill="none" xmlns="http://www.w3.org/2000/svg"><circle cx="21.5" cy="27.5" r="21.5" fill="#F90"/><g clip-path="url(#clip0_166612_3994)" fill-rule="evenodd" clip-rule="evenodd" fill="#000"><path d="M31.889 5.587a.352.352 0 01.481-.13l20.617 11.94a.355.355 0 01.13.484.352.352 0 01-.482.13L32.018 6.07a.355.355 0 01-.129-.484z"/><path d="M39.974.666a5.059 5.059 0 015.058 0l16.444 9.399a5.06 5.06 0 012.53 4.377v18.797a5.061 5.061 0 01-2.53 4.377l-.002.001-16.441 9.397a5.06 5.06 0 01-5.06 0l-16.442-9.397h-.001A5.061 5.061 0 0121 33.238V14.442a5.061 5.061 0 012.53-4.377l.001-.001L39.973.667zm2.529.045c-.761 0-1.51.2-2.169.582L23.89 10.691a4.337 4.337 0 00-2.168 3.752v18.795a4.338 4.338 0 002.167 3.752h.001l16.444 9.398a4.336 4.336 0 004.336 0h.002l16.441-9.398h.001a4.339 4.339 0 002.168-3.752V14.443a4.34 4.34 0 00-2.168-3.752L44.672 1.293h-.002A4.336 4.336 0 0042.503.71z"/><path d="M21.77 12.09a.359.359 0 01.488-.128l20.064 11.48 20.064-11.48a.359.359 0 01.487.129.35.35 0 01-.13.482L42.501 24.154a.36.36 0 01-.357 0L21.9 12.573a.35.35 0 01-.13-.482z"/><path d="M42.322 23.479c.2 0 .361.158.361.353v23.146a.357.357 0 01-.36.353.357.357 0 01-.362-.353V23.832c0-.195.162-.353.361-.353z"/></g><defs><clipPath id="clip0_166612_3994"><path fill="#fff" transform="translate(21)" d="M0 0h43v48H0z"/></clipPath></defs></svg>