<svg width="25" height="29" fill="none" xmlns="http://www.w3.org/2000/svg"><path fill="#fff" d="M0 0h25v29H0z"/><path d="M8.995 16.831l2.78-6.402h.932v1.811l-1.972 4.591h1.47v-.825c0-.2.335-.215.502-.197v2.529c-.459 0-.526-.155-.502-.233v-.718h-1.74L6.162 27H6l1.094-3.318s-.968-.376-.646-1.183c.323-.807 2.26-5.112 2.26-5.112h-2.26v-.556h2.547z" fill="#333"/><path d="M16.24 16.831l-2.78-6.402h-.932v1.811l1.973 4.591h-1.47v-.825c0-.2-.336-.215-.503-.197v2.529c.46 0 .526-.155.502-.233v-.718h1.74L19.074 27h.161l-1.094-3.318s.969-.376.646-1.183c-.323-.807-2.26-5.112-2.26-5.112h2.26v-.556H16.24z" fill="#333"/><path fill-rule="evenodd" clip-rule="evenodd" d="M12.636 9.496a1.901 1.901 0 100-3.802 1.901 1.901 0 000 3.802zm0 1.04a2.941 2.941 0 100-5.882 2.941 2.941 0 000 5.883z" fill="#333"/><path d="M12.098 2h1.076v2.834h-1.076V2z" fill="#333"/></svg>